<?xml version="1.0" standalone="no"?>
<!DOCTYPE svg PUBLIC "-//W3C//DTD SVG 20010904//EN"
 "http://www.w3.org/TR/2001/REC-SVG-20010904/DTD/svg10.dtd">
<svg version="1.0" xmlns="http://www.w3.org/2000/svg"
 width="293.000000pt" height="293.000000pt" viewBox="0 0 293.000000 293.000000"
 preserveAspectRatio="xMidYMid meet">
<metadata>
Created by potrace 1.16, written by Peter Selinger 2001-2019
</metadata>
<g transform="translate(0.000000,293.000000) scale(0.100000,-0.100000)"
fill="#000000" stroke="none">
<path d="M1231 2672 c-8 -15 -24 -21 -65 -24 -46 -4 -58 -9 -81 -37 -15 -17
-42 -38 -60 -45 -37 -16 -214 -180 -260 -241 -72 -97 -82 -135 -61 -244 17
-87 26 -111 57 -142 10 -10 19 -30 19 -43 0 -12 5 -38 11 -55 9 -25 9 -38 -2
-57 -25 -48 19 -288 63 -342 6 -6 22 -18 36 -25 21 -10 29 -26 43 -82 9 -38
27 -94 38 -123 26 -65 26 -78 2 -128 -11 -22 -25 -69 -32 -104 -7 -36 -16 -70
-20 -75 -5 -6 -32 -17 -61 -24 -29 -7 -72 -26 -95 -42 -23 -16 -44 -29 -48
-29 -4 0 -38 -18 -77 -41 -75 -44 -193 -76 -320 -88 -36 -3 -69 -9 -73 -12
-10 -11 113 -168 199 -253 196 -192 456 -331 736 -392 122 -27 458 -27 580 0
122 26 251 71 354 123 149 75 163 86 171 135 19 127 28 169 32 164 3 -3 0 -44
-6 -91 -7 -48 -10 -89 -7 -92 8 -8 125 86 202 163 113 114 174 207 174 267 0
20 11 22 28 5 7 -7 12 -8 12 -2 0 14 -44 34 -74 34 -13 0 -43 7 -67 16 -24 9
-78 18 -119 21 -52 3 -85 11 -109 26 -19 11 -54 22 -79 23 -25 2 -49 7 -55 13
-17 17 -36 13 -31 -6 3 -11 -4 -23 -16 -31 -20 -12 -20 -11 -11 7 6 11 11 26
11 33 0 18 -45 44 -90 52 -19 3 -55 20 -80 36 -74 49 -77 45 -56 -55 9 -43 10
-62 2 -67 -17 -12 -26 -9 -26 7 0 7 -8 18 -17 23 -15 9 -15 15 4 78 17 56 20
81 13 130 -12 93 -60 161 -60 85 0 -42 -48 -123 -109 -187 -58 -60 -77 -70
-141 -78 -22 -3 -46 -8 -53 -12 -8 -5 -9 -4 -2 3 6 6 27 16 47 23 36 11 60 30
39 30 -17 0 -13 20 12 50 12 15 31 40 42 56 11 15 37 48 58 73 56 64 89 121
83 138 -5 12 -12 9 -34 -14 -33 -34 -77 -59 -156 -90 -70 -28 -90 -29 -114 -5
-32 32 -82 63 -92 57 -12 -7 -60 23 -60 39 0 13 71 46 98 46 10 0 27 7 38 15
16 13 17 16 4 25 -8 5 -35 12 -60 16 -25 4 -69 20 -99 37 l-53 30 26 14 c14 7
26 18 26 24 0 6 9 8 20 4 11 -4 20 -2 20 4 0 12 106 15 112 4 2 -5 30 -21 63
-37 33 -16 68 -36 77 -44 25 -21 37 -7 31 36 -7 49 -63 99 -63 56 0 -9 -6 -14
-12 -11 -39 14 -87 27 -119 32 -21 3 -42 12 -49 20 -7 8 -22 15 -33 15 -14 0
-18 3 -11 10 7 7 27 7 61 1 80 -16 124 6 66 32 -16 6 -31 17 -36 24 -4 7 -14
10 -23 6 -12 -4 -14 0 -8 21 5 20 2 26 -10 26 -9 0 -30 10 -47 22 -28 21 -31
22 -40 5 -6 -9 -19 -17 -29 -17 -29 0 -26 38 4 51 32 15 53 74 62 171 5 64 3
82 -11 104 -19 30 -61 49 -127 58 -58 9 -67 20 -39 50 12 12 21 31 21 42 0 38
32 109 58 132 15 13 65 41 110 63 74 34 93 39 156 39 70 0 73 -1 141 -51 85
-61 132 -106 149 -139 8 -14 16 -74 20 -135 7 -115 25 -235 35 -235 10 0 39
61 50 105 6 22 11 101 12 175 1 94 6 142 15 157 8 13 11 30 6 40 -16 41 -90
148 -144 208 -31 35 -66 81 -77 104 -12 23 -25 42 -29 42 -4 1 -20 3 -36 5
-16 2 -45 16 -65 32 -52 42 -80 55 -94 44 -14 -11 -264 -9 -289 2 -11 5 -20 1
-27 -12z m76 -957 c1 -34 -2 -45 -13 -45 -11 0 -13 -6 -9 -21 5 -16 -1 -30
-25 -54 -36 -37 -32 -60 9 -51 l26 7 -25 -21 c-14 -11 -31 -17 -38 -15 -8 3
-27 -6 -44 -20 -35 -30 -58 -32 -58 -7 0 12 -14 25 -40 37 -61 27 -80 50 -80
95 0 22 3 40 8 40 4 0 12 10 17 22 8 17 32 27 115 48 153 40 155 40 157 -15z
m763 -845 c0 -5 -5 -10 -11 -10 -5 0 -7 5 -4 10 3 6 8 10 11 10 2 0 4 -4 4
-10z m30 -101 c0 -10 -8 -25 -17 -35 -24 -24 -43 -62 -43 -88 0 -24 -38 -111
-45 -104 -3 3 4 54 16 114 11 60 23 126 26 147 l5 39 29 -28 c16 -15 29 -36
29 -45z m-160 -10 c0 -5 -4 -9 -10 -9 -5 0 -10 7 -10 16 0 8 5 12 10 9 6 -3
10 -10 10 -16z m452 -57 c-2 -20 -9 -43 -16 -52 -8 -8 -17 -25 -20 -37 -13
-40 -27 -26 -21 20 8 59 15 79 33 100 20 23 27 14 24 -31z m-432 -13 c0 -43
-2 -50 -14 -40 -15 12 -15 41 -1 74 12 28 15 20 15 -34z m-569 23 c24 -19 56
-34 74 -36 6 -1 9 -13 8 -28 -1 -20 2 -25 13 -21 8 3 14 9 14 13 0 5 15 10 33
12 18 2 32 9 32 16 0 14 32 42 47 42 4 0 8 -4 8 -10 0 -5 -8 -10 -17 -10 -13
0 -14 -3 -5 -8 9 -6 -1 -23 -33 -61 -25 -29 -50 -62 -56 -72 -5 -10 -14 -19
-19 -19 -5 0 -42 22 -82 49 -77 52 -77 50 -70 134 2 22 23 22 53 -1z m1249 3
c0 -2 -20 -24 -44 -48 -29 -29 -49 -62 -61 -98 -17 -53 -55 -110 -42 -64 8 30
48 145 63 183 12 27 19 32 49 32 19 0 35 -2 35 -5z m-1140 -300 c0 -7 7 -18
16 -23 17 -9 12 -32 -7 -32 -6 0 -8 4 -5 9 3 5 -1 14 -9 21 -10 9 -15 9 -15 1
0 -6 -4 -11 -10 -11 -11 0 -14 33 -3 43 12 12 33 7 33 -8z"/>
<path d="M1593 2000 c-84 -17 -135 -64 -83 -77 23 -6 24 -8 10 -33 -22 -41 53
-120 114 -120 23 0 27 3 18 12 -16 16 -15 28 2 28 8 0 22 10 30 22 15 20 16
21 34 5 10 -9 24 -17 31 -17 26 0 3 24 -49 52 -30 16 -54 34 -52 39 1 5 -5 9
-14 9 -24 0 -12 22 27 48 19 13 36 27 37 33 4 11 -46 10 -105 -1z"/>
<path d="M1490 1600 c0 -13 48 -36 56 -27 4 3 4 13 1 22 -7 17 -57 21 -57 5z"/>
<path d="M1853 1263 c-7 -20 -8 -33 -2 -33 13 0 22 24 17 47 -3 13 -7 9 -15
-14z"/>
</g>
</svg>
